<svg xmlns="http://www.w3.org/2000/svg" width="128" height="128" viewBox="0 0 128 128" role="img" aria-labelledby="title desc">
  <title id="title">Verify Async FunctionApp Deployment icon</title>
  <desc id="desc">A cloud deployment verification mark with an Azure Functions-style bolt and async status ring.</desc>
  <defs>
    <linearGradient id="bg" x1="18" y1="14" x2="110" y2="118" gradientUnits="userSpaceOnUse">
      <stop offset="0" stop-color="#0078d4"/>
      <stop offset="1" stop-color="#243a5e"/>
    </linearGradient>
    <linearGradient id="ring" x1="32" y1="26" x2="98" y2="100" gradientUnits="userSpaceOnUse">
      <stop offset="0" stop-color="#7ee6ff"/>
      <stop offset="1" stop-color="#35d07f"/>
    </linearGradient>
    <filter id="shadow" x="-20%" y="-20%" width="140%" height="140%">
      <feDropShadow dx="0" dy="6" stdDeviation="6" flood-color="#0b1728" flood-opacity="0.28"/>
    </filter>
  </defs>

  <rect width="128" height="128" rx="24" fill="url(#bg)"/>
  <path d="M24 83c-9 0-16-7-16-16 0-8 6-15 14-16 3-13 15-23 30-23 11 0 21 6 27 15 3-1 6-2 10-2 14 0 25 11 25 25s-11 25-25 25H24z" fill="#ffffff" opacity="0.14"/>

  <g filter="url(#shadow)">
    <circle cx="64" cy="64" r="38" fill="#10243d" opacity="0.86"/>
    <path d="M64 26a38 38 0 0 1 35 24" fill="none" stroke="url(#ring)" stroke-width="8" stroke-linecap="round"/>
    <path d="M99 78a38 38 0 0 1-67 5" fill="none" stroke="url(#ring)" stroke-width="8" stroke-linecap="round"/>
    <path d="M33 41l-1 16-14-8 15-8z" fill="#7ee6ff"/>
    <path d="M95 87l1-16 14 8-15 8z" fill="#35d07f"/>
  </g>

  <path d="M59 25h22L67 55h19L53 103l8-35H43l16-43z" fill="#ffca28"/>
  <path d="M59 25h22L67 55h19L53 103l8-35H43l16-43z" fill="none" stroke="#fff4b3" stroke-width="3" stroke-linejoin="round" opacity="0.5"/>

  <circle cx="88" cy="89" r="22" fill="#0f6c3f" stroke="#d7fff0" stroke-width="5"/>
  <path d="M78 89l7 7 14-16" fill="none" stroke="#ffffff" stroke-width="7" stroke-linecap="round" stroke-linejoin="round"/>
</svg>
